<?xml version="1.0" encoding="utf-8"?>
<!-- Generator: Adobe Illustrator 16.0.3, SVG Export Plug-In . SVG Version: 6.00 Build 0)  -->
<!DOCTYPE svg PUBLIC "-//W3C//DTD SVG 1.1//EN" "http://www.w3.org/Graphics/SVG/1.1/DTD/svg11.dtd">
<svg version="1.1" id="Capa_1" xmlns="http://www.w3.org/2000/svg" xmlns:xlink="http://www.w3.org/1999/xlink" x="0px" y="0px"
	 width="150px" height="150px" viewBox="0 0 200 200">
<path fill-rule="evenodd" clip-rule="evenodd" fill="#FE190A" d="M443.622,323.101c-10.975,9.584-18.022,22.955-30.241,31.342
	c-2.873-2.359-3.738-5.715-3.572-9.074c1.021-21.023-0.006-42.126-1.458-62.957c-2.553-36.542,0.503-73.139-2.937-109.612
	c-1.204-12.8-2.501-25.989,5.584-37.582c11.046,10.235,21.303,21.192,30.427,33.186c2.538,18.193,2.538,36.552,2.425,54.815
	c-0.198,31.797,1.239,63.543,1.68,95.315C445.552,320.245,444.616,321.728,443.622,323.101z"/>
<path fill-rule="evenodd" clip-rule="evenodd" fill="#FD3609" d="M309.389,245.097c-22.463,3.513-45.075,0.656-67.601,1.598
	c-6.504,0.272-5.917-4.379-5.905-8.626c0.153-55.053,0.297-110.105,0.445-165.158c8.219,3.614,5.896,11.2,5.942,17.347
	c0.305,40.714,0.139,81.432,0.153,122.148c0,3.777-0.04,7.555,0.015,11.333c0.237,16.051,0.673,16.484,17.174,17.367
	c1.247,0.094,2.501,0.262,3.766,0.262c18.658,0,19.272-0.678,19.502-18.864c0.571-45.407-2.449-90.756-2.001-136.161
	c0.06-5.787-1.554-11.877,3.226-16.756c9.025-1.116,18.067-0.574,27.104-0.307c7.996,18.29,8.061,37.186,4.28,56.384
	c-1.183,1.019-2.488,1.828-3.921,2.444c-2.18,34.02-0.324,68.068-1.027,102.09C310.44,235.164,311.764,240.291,309.389,245.097z"/>
<path fill-rule="evenodd" clip-rule="evenodd" fill="#FE200B" d="M410.998,135.217c-2.511,45.582-0.487,91.073,1.806,136.613
	c1.384,27.475,0.463,55.07,0.577,82.612c-4.063,5.831-9.137,10.678-14.673,15.074c-6.396,0.686-5.979-4.642-7.415-8.364
	c-0.163-1.455-0.086-2.897,0.171-4.332c-4.166-43.986-0.767-88.1-2.367-132.101c-0.726-19.959-0.045-39.979-1.981-59.896
	c-1.141-11.727,1.217-23.408,0.415-35.1c-2.355-6.138-5.809-12.513,2.996-16.647C398.265,119.612,405.18,126.907,410.998,135.217z"
	/>
<path fill-rule="evenodd" clip-rule="evenodd" fill="#FB4D08" d="M223.236,282.929c-10.945-1.037-14.606,3.671-13.592,14.668
	c1.081,11.694-0.104,23.581,0.386,35.357c0.307,7.343-1.499,10.568-9.678,10.534c-8.52-0.035-8.129-4.755-8.119-10.596
	c0.082-55.607,0.044-111.214,0.044-166.82c-0.002-27.382,0.29-54.771-0.146-82.145c-0.19-11.851,4.07-16.655,15.89-13.354
	c2.375,4.347,1.175,9.06,1.183,13.582c0.094,57.066,0.044,114.135,0.094,171.201c0.005,4.166-0.658,8.394,0.648,12.489
	c4.95,2.825,10.549,0.2,15.65,1.826C229.891,274.995,228.808,279.361,223.236,282.929z"/>
<path fill-rule="evenodd" clip-rule="evenodd" fill="#FE6B04" d="M101.271,165.458c4.78-6.994,11.271-12.268,17.669-17.639
	c7.58,3.315,8.417,10.599,8.317,17.048c-0.436,28.936,3.261,57.712,1.709,86.769c-0.953,17.81,0.208,35.959,0.967,53.932
	c0.371,8.845,0.485,17.649-0.223,26.441c-0.411,5.087-1.306,10.358-8.565,9.644c-7.342-6.007-13.81-12.856-19.621-20.341
	c-2.264-6.969-1.096-14.148-1.037-21.204C100.86,255.226,99.316,210.331,101.271,165.458z"/>
<path fill-rule="evenodd" clip-rule="evenodd" fill="#FD4108" d="M261.392,244.662c-22.956,1.034-22.956,1.034-22.956-22.04
	c0-45.466,0.044-90.935-0.072-136.401c-0.012-4.463,1.544-9.329-2.036-13.31c1.128-6.618,5.517-3.291,8.934-2.927
	c5.517-1.467,11.026-1.638,16.528,0.094c4.305,5.465,3.479,11.986,3.34,18.178c-0.757,33.163,1.546,66.309,0.178,99.479
	c-0.535,12.993-0.307,26.009,1.662,38.979C267.962,233.254,268.677,240.384,261.392,244.662z"/>
<path fill-rule="evenodd" clip-rule="evenodd" fill="#FE6006" d="M144.129,123.194c3.449-4.987,7.687-9.188,12.662-12.652
	c7.833-2.78,8.372,3.432,9.292,8.1c1.395,7.081,0.079,14.314-0.025,21.477c-0.668,45.152,1.059,90.289,3.174,135.329
	c1.512,32.206,0.804,64.395,2.031,96.57c0.2,5.24,1.878,13.095-6.858,15.16c-5.079-3.35-8.782-8.025-12.354-12.827
	c-5.027-35.233-3.308-70.692-3.59-106.09C148.078,219.875,147.811,171.483,144.129,123.194z"/>
<path fill-rule="evenodd" clip-rule="evenodd" fill="#FA260A" d="M311.897,126.007c0.849-0.057,1.694-0.116,2.54-0.173
	c5.871-4.648,12.771-3.488,19.458-3.473c0.821-0.013,1.652-0.02,2.486-0.025c24.821-0.156,24.823-0.156,23.263-25.138
	c-0.263-4.201-0.466-8.379,2.914-11.667c7.738,4.067,12.714,11.019,18.218,17.421c-0.505,8.738,0.544,17.461,0.312,26.209
	c0.03,2.001-0.027,3.993-0.168,5.992c-3.266,31.859,0.386,63.761-0.479,95.682c-0.74,27.31,1.902,54.78,1.667,82.315
	c-0.156,18.3,0.91,36.921,2.271,55.34c0.41,5.565,0.242,10.846-0.795,16.216c-4.274,4.845-8.55,9.69-15.036,17.043
	c0-34.251,0.003-64.772,0-95.293c-0.003-22.051-0.008-22.051-21.175-23.525c-1.573-4.866-4.681-9.933,1.809-13.737
	c6.843-1.586,14.52,3.219,20.791-2.721c-3.103-41.931-0.972-83.923-1.16-125.881c-0.039-9.156-1.823-12.89-11.496-12.424
	c-15.081,0.725-30.212,0.423-45.32,0.557c-0.729-0.579-0.987-1.172-0.771-1.786C311.439,126.318,311.665,126.007,311.897,126.007z"
	/>
<path fill-rule="evenodd" clip-rule="evenodd" fill="#FE6305" d="M144.129,123.194c6.999,7.281,4.889,16.86,5.381,25.281
	c3.679,62.808,2.588,125.71,2.912,188.588c0.044,8.737,1.301,17.53,2.729,26.177c0.75,4.532,1.121,8.275-3.1,11.11
	c-5.139-3.271-8.604-8.109-12.103-12.917c-6.759-22.166-3.127-45.082-3.476-67.481c-0.705-44.981-3.021-89.922-3.055-134.908
	c-0.005-7.43-2.855-13.921-4.735-20.769C132.962,132.357,138.261,127.484,144.129,123.194z"/>
<path fill-rule="evenodd" clip-rule="evenodd" fill="#FB3609" d="M233.842,305.845c24.903-4.079,49.971-0.854,74.953-1.643
	c4.69-0.148,4.755,3.688,4.75,7.238c-0.03,33.624-0.166,67.247,0.113,100.868c0.055,6.435-2.545,7.998-8.203,7.592
	c-5.438-0.391-10.905-0.336-16.357-0.478c-6.534-13.146-2.583-27.285-3.231-40.877c-0.782-16.367-0.633-32.866-0.537-49.315
	c0.111-18.502-0.784-19.2-18.965-19.778c-7.365,0.153-14.727,0.284-22.092-0.114C240.45,309.202,236.702,308.838,233.842,305.845z"
	/>
<path fill-rule="evenodd" clip-rule="evenodd" fill="#FE6805" d="M128.682,138.275c6.056,2.707,8.584,7.239,8.498,13.995
	c-0.559,44.801,2.769,89.517,2.939,134.334c0.082,21.306-1.551,42.844,1.913,64.149c0.569,3.501,1.276,7.654-2.083,10.68
	c-7.199-5.707-13.35-12.414-18.802-19.781c5.245-2.135,5.735-6.104,5.448-11.311c-1.346-24.396-2.189-49.036-1.276-73.224
	c1.061-28.082-2.848-55.904-0.96-83.857c0.599-8.864-0.728-17.577-5.418-25.442C121.493,143.931,124.702,140.709,128.682,138.275z"
	/>
<path fill-rule="evenodd" clip-rule="evenodd" fill="#FE3D09" d="M266.288,306.188c22.812-0.933,22.312-0.92,22.956,22.322
	c0.636,22.869-1.521,45.756,1.482,68.662c0.917,7.011-2.133,14.71-1.628,22.25c-6.754-0.002-13.508-0.005-20.262-0.007
	c-5.25-5.148-6.301-11.944-6.125-18.624c0.71-26.817-2.786-53.605-0.336-80.42C262.832,315.387,262.369,310.199,266.288,306.188z"/>
<path fill-rule="evenodd" clip-rule="evenodd" fill="#FE4008" d="M266.288,306.188c-0.579,37.774-1.821,75.564,2.548,113.228
	c-19.359-0.082-38.717-0.161-58.076-0.24c1.36-5.821,6.351-4.527,10.296-5.284c20.68-0.438,21.919-2.447,20.593-22.827
	c-0.953-14.613-2.175-29.339,0.096-44.039c1.358-8.77,1.069-17.634-0.247-26.441c-0.748-4.982-2.012-10.059,1.994-14.393
	C251.09,306.191,258.688,306.191,266.288,306.188z"/>
<path fill-rule="evenodd" clip-rule="evenodd" fill="#FB5C06" d="M164.406,387.178c4.77-22.755,10.279-45.495,1.361-68.535
	c-0.44-1.141-0.878-2.625-0.524-3.684c8.856-26.607-4.033-52.557-2.395-78.808c2.318-37.161-2.914-74.27,0.129-111.406
	c0.44-5.358,2.219-12.263-6.185-14.203c4.493-4.856,8.988-9.712,13.676-14.779c3.825,3.919,2.083,7.865,2.088,11.309
	c0.139,81.887,0.094,163.777,0.23,245.664c0.007,4.837-1.927,10.228,2.432,14.421c1.663,0.648,3.273,1.4,4.676,2.536
	c6.601,9.883,3.847,20.771,3.182,31.384c-0.109,1.744-2.023,2.38-3.859,1.447C174.279,397.407,169.344,392.294,164.406,387.178z"/>
<path fill-rule="evenodd" clip-rule="evenodd" fill="#FE4409" d="M177.676,369.254c-0.821-0.7-1.643-1.397-2.459-2.098
	c15.88-0.139,31.771-0.66,47.638-0.25c7.635,0.198,10.04-2.088,10.049-9.861c0.02-17.06-1.578-34.182,0.935-51.2
	c3.219,0.114,6.438,0.228,9.653,0.344c4.785,26.053,0.537,52.121,0.193,78.182c-0.017,1.239,0.322,2.488,0.54,3.726
	c4.74,26.788,2.716,29.297-23.522,29.168c-5.831-9.621-4.456-20.118-3.777-30.559c0.458-7.023,0.715-14.071-9.465-13.965
	c-4.213,0.22-8.412,0.047-12.617,0.005C188.794,373.173,182.921,372.747,177.676,369.254z"/>
<path fill-rule="evenodd" clip-rule="evenodd" fill="#FD230A" d="M383.584,384.706c-3.419-7.201-3.166-15.183-3.018-22.611
	c0.554-27.379-1.21-54.813-1.799-82.068c-0.329-15.209,4.792-31.703-2.504-47.348c-2.412-5.171,1.468-12.988,1.391-19.584
	c-0.274-23.658-1.078-47.312-1.494-70.972c-0.05-2.84,1.044-5.7,1.608-8.55c7.508-6.343,10.192-0.263,10.076,5.192
	c-0.324,15.049-0.3,30.175,0.955,45.046c2.125,25.138-3.778,49.996-1.22,74.97c1.539,15.015,3.332,29.928,1.407,45.036
	c-1.178,9.22-0.796,18.173,1.695,27.44c2.38,8.869-1.688,18.726,2.285,27.78c0,0.844,0,1.689,0,2.533
	c-2.654,4.579,3.172,8.955,0.324,13.54C390.057,378.309,386.82,381.508,383.584,384.706z"/>
<path fill-rule="evenodd" clip-rule="evenodd" fill="#FE2C09" d="M362.559,85.531c-1.475,8.909,2.275,17.268,2.746,26.031
	c0.584,10.836-3.098,15.714-14.295,14.492c-5.381-0.586-10.873-0.166-16.313-0.2c-7.17-11.996-3.138-25.563-4.775-38.304
	c-1.246-9.71-3.631-14.685-13.619-14.727c-1.659-0.008-3.035-1.361-4.4-2.348c-9.303,0.052-18.602,0.104-27.901,0.156
	c-7.58,4.654-15.167,4.622-22.76,0.032c-5.324-0.225-10.648-0.453-15.977-0.678c32.78-2.699,65.638-1.667,98.458-1.519
	C353.82,68.513,355.819,80.264,362.559,85.531z"/>
<path fill-rule="evenodd" clip-rule="evenodd" fill="#EA2A09" d="M346.478,362.884c0,16.399-0.089,32.8,0.055,49.199
	c0.04,4.768-0.46,7.991-6.603,7.98c-5.826-0.01-6.925-2.604-6.902-7.687c0.146-33.217,0.128-66.438,0.024-99.657
	c-0.018-5.205,0.418-9.111,7.222-8.892c6.278,0.206,6.234,4.154,6.222,8.598C346.448,329.246,346.478,346.063,346.478,362.884z"/>
<path fill-rule="evenodd" clip-rule="evenodd" fill="#EE2A09" d="M347.074,197.078c0,13.906-0.106,27.814,0.057,41.718
	c0.057,4.926-0.955,8.023-6.818,8.092c-5.62,0.064-7.266-2.412-7.241-7.649c0.134-28.232,0.151-56.467-0.012-84.698
	c-0.032-5.521,1.956-7.261,7.476-7.209c6.136,0.057,6.665,3.204,6.604,8.03C346.958,169.266,347.074,183.172,347.074,197.078z"/>
<path fill-rule="evenodd" clip-rule="evenodd" fill="#FB160A" d="M443.622,323.101c-1.489-27.314-2.983-54.585-3.327-81.994
	c-0.253-20.009,4.305-40.687-3.227-60.525c-1.709-4.505,0.965-8.795,4.356-12.177c5.181,3.109,6.888,7.567,6.896,13.673
	c0.052,43.269,0.43,86.536,0.727,129.805C449.079,316.547,449.572,321.363,443.622,323.101z"/>
<path fill-rule="evenodd" clip-rule="evenodd" fill="#FE3D09" d="M223.236,282.929c2.459-3.814,2.768-8.07,2.563-12.434
	c20.083-2.848,40.238-1.034,60.374-0.92c4.339,4.327,3.785,8.795,0.386,13.342C265.452,282.921,244.344,282.924,223.236,282.929z"/>
<path fill-rule="evenodd" clip-rule="evenodd" fill="#FC4B08" d="M208.017,369.252c9.524-1.487,13.671,1.764,12.894,12.154
	c-0.893,11.89-0.208,23.9-0.208,35.857c-3.362,0.381-7.061-0.973-9.942,1.912c-5.839-0.183-12.031,2.712-17.347-1.994
	c1.145-1.489,2.724-2.35,4.381-3.092c7.226-3.64,8.673-9.434,6.885-16.915C202.376,387.539,203.41,378.141,208.017,369.252z"/>
<path fill-rule="evenodd" clip-rule="evenodd" fill="#FD5207" d="M197.881,417.236c-1.489-0.018-2.979-0.037-4.468-0.055
	c-5.52-4.121-10.158-9.102-14.198-14.66c2.435-11.227,3.384-22.385-1.539-33.27c5.898,0.002,11.798,0.005,17.698,0.005
	c5.346,6.578,3.53,14.428,3.434,21.778C198.697,399.763,199.214,408.543,197.881,417.236z"/>
<path fill-rule="evenodd" clip-rule="evenodd" fill="#F74108" d="M210.626,270.294c-4.302-3.649-2.543-8.62-2.551-13.018
	c-0.104-62.234-0.059-124.469-0.054-186.703c4.094,3.837,1.771,8.74,1.798,13.042c0.396,61.47,0.549,122.94,0.76,184.41
	c0.875,0.488,1.172,0.985,0.896,1.495C211.198,270.035,210.916,270.294,210.626,270.294z"/>
<path fill-rule="evenodd" clip-rule="evenodd" fill="#FE320A" d="M347.319,270.504c0.507,4.142,3.624,8.268,0.054,12.426
	c-11.817-0.005-23.636-0.01-35.451-0.017c-1.717-5.428-1.762-10.374,3.943-13.661C326.345,269.743,336.929,267.652,347.319,270.504z
	"/>
<path fill-rule="evenodd" clip-rule="evenodd" fill="#F62A09" d="M347.319,270.504c-10.965,0.007-21.925,0.015-32.887,0.022
	c-9.289,5.341-18.581,5.333-27.869-0.002c-20.256-0.01-40.508-0.022-60.765-0.03c-5.057-0.067-10.116-0.134-15.175-0.2
	c-0.03-0.757-0.044-1.512-0.044-2.269c48.185-0.002,96.37,0.018,144.552-0.049c4.97-0.005,10.091,0.95,14.839-1.501
	C363.612,274.507,354.73,268.387,347.319,270.504z"/>
<path fill-rule="evenodd" clip-rule="evenodd" fill="#F16904" d="M101.271,165.458c0.084,51.95,0.171,103.903,0.255,155.853
	c-2.887-2.132-2.046-5.276-2.051-8.09c-0.042-46.923-0.032-93.846-0.015-140.769C99.46,169.986,99.052,167.369,101.271,165.458z"/>
<path fill-rule="evenodd" clip-rule="evenodd" fill="#FE3709" d="M286.564,270.524c9.288,0,18.58,0,27.869,0
	c0.263,4.354-0.094,8.582-2.511,12.39c-8.456,0.002-16.907,0.002-25.363,0.002C286.559,278.785,286.562,274.656,286.564,270.524z"/>
<path fill-rule="evenodd" clip-rule="evenodd" fill="#FE310A" d="M311.897,126.007c0.034,0.905,0.064,1.811,0.099,2.716
	c-0.148,34.89-0.223,69.782-0.552,104.672c-0.037,3.889,2.091,8.434-2.056,11.702c-0.005-35.335-0.074-70.673,0.057-106.008
	C309.463,134.675,307.743,129.728,311.897,126.007z"/>
<path fill-rule="evenodd" clip-rule="evenodd" fill="#FD230A" d="M377.769,128.505c2.466-8.344-4.993-17.859,3.008-25.553
	c3.961,2.689,7.325,5.955,9.75,10.124c-1.799,4.287-6.057,8.555-0.092,12.896C387.224,131.875,382.632,130.863,377.769,128.505z"/>
<path fill-rule="evenodd" clip-rule="evenodd" fill="#FE220A" d="M393.292,375.11c1.849-4.56-15.052-8.674-0.324-13.54
	c1.913,2.649,3.825,5.297,5.74,7.946C396.901,371.382,395.096,373.245,393.292,375.11z"/>
<path fill-rule="evenodd" clip-rule="evenodd" fill="#FE3D09" d="M261.241,70.662c7.585-0.012,15.175-0.024,22.76-0.034
	c0.93,28.566,0.658,57.14,2.251,85.722c1.44,25.835,0.151,51.814,0.401,77.729c0.077,8.236-3.464,11.509-11.41,10.975
	c-4.606-0.312-9.237-0.27-13.854-0.389c3.508-5.831,3.107-12.379,2.034-18.448c-3.463-19.611-0.698-39.177-1.024-58.717
	c-0.344-20.467-0.683-41.008-1.118-61.512C261.033,94.217,261.241,82.438,261.241,70.662z"/>
<path fill-rule="evenodd" clip-rule="evenodd" fill="#FE310A" d="M311.902,70.474c3.347-0.077,6.714,0.044,10.039-0.267
	c9.208-0.866,11.667,0.658,11.267,12.046c-0.503,14.274,1.375,29.019,1.489,43.601c-6.754-0.005-13.508-0.013-20.26-0.018
	C313.595,107.38,312.748,88.927,311.902,70.474z"/>
<path fill-rule="evenodd" clip-rule="evenodd" fill="#FE220A" d="M377.769,128.505c4.445,0.275,8.758-0.126,12.666-2.533
	c0.045,20.89,0.666,41.802-0.108,62.66c-0.381,10.235,2.911,19.789,2.808,29.935c-0.408,39.076,0.312,78.168-0.569,117.23
	c-0.178,7.805,8.261,15.496,0.403,23.24c-4.111-5.886-11.37-11.039-3.518-19.384c1.21-1.284,1.108-5.492-0.082-7.078
	c-9.034-12.06-3.235-24.825-2.637-37.45c0.606-12.745-0.686-25.494-2.904-38.088c-1.833-10.393-3.078-20.826,2.204-30.539
	c4.203-7.724-0.72-14.787-0.648-22.167c0.186-19.646,0.65-39.296,0.376-58.937c-0.066-4.911,3.853-14.195-7.99-11.823
	C377.769,131.882,377.769,130.195,377.769,128.505z"/>
<path fill-rule="evenodd" clip-rule="evenodd" fill="#FE4F08" d="M197.881,417.236c-6.588-10.539-0.883-21.998-2.397-32.948
	c-0.678-4.923-0.111-10.017-0.109-15.031c4.216-0.003,8.429-0.003,12.645-0.005c1.937,10.744-4.035,21.407,1.296,32.807
	C211.299,406.304,207.952,416.778,197.881,417.236z"/>
</svg>
