<?xml version="1.0" encoding="utf-8"?>
<!-- Generator: Adobe Illustrator 16.0.3, SVG Export Plug-In . SVG Version: 6.00 Build 0)  -->
<!DOCTYPE svg PUBLIC "-//W3C//DTD SVG 1.1//EN" "http://www.w3.org/Graphics/SVG/1.1/DTD/svg11.dtd">
<svg version="1.1" id="Capa_1" xmlns="http://www.w3.org/2000/svg" xmlns:xlink="http://www.w3.org/1999/xlink" x="0px" y="0px"
	 width="612px" height="792px" viewBox="0 0 612 792" enable-background="new 0 0 612 792" xml:space="preserve">
<g>
	<path fill-rule="evenodd" clip-rule="evenodd" fill="#FDFDFD" d="M250.313,266.029c0-13.248,0.133-25.192-0.078-37.132
		c-0.066-3.752,1.108-4.826,4.835-4.848c3.868-0.021,4.753,1.346,4.715,4.962c-0.17,15.989-0.027,31.982-0.137,47.973
		c-0.014,2.033,1.452,5.349-2.113,5.657c-3.177,0.275-6.625,1.368-9.204-2.709c-7.732-12.229-15.946-24.152-23.972-36.195
		c-0.351-0.527-0.697-1.058-1.902-2.89c0,4.859,0,8.327,0,11.794c0.001,8.329-0.146,16.661,0.071,24.984
		c0.095,3.647-0.487,5.333-4.816,5.349c-4.62,0.017-4.593-2.27-4.574-5.594c0.091-15.991,0.013-31.982,0.076-47.974
		c0.007-1.826-1.013-4.813,1.694-5.007c2.981-0.215,6.576-1.828,9.032,1.948c6.347,9.761,12.869,19.408,19.321,29.1
		C245.366,258.605,247.469,261.76,250.313,266.029z"/>
	<path fill-rule="evenodd" clip-rule="evenodd" fill="#FDFDFD" d="M268.281,253.502c0-8.33,0.216-16.668-0.089-24.987
		c-0.157-4.275,2.002-4.349,5.217-4.425c3.433-0.081,4.814,0.85,4.585,4.514c-0.312,4.979,0.05,9.996-0.132,14.987
		c-0.098,2.679,0.494,3.834,3.5,3.732c6.657-0.226,13.335-0.281,19.986,0.016c3.385,0.15,3.808-1.212,3.695-4.055
		c-0.205-5.156,0.121-10.335-0.119-15.489c-0.186-3.988,2.257-3.644,4.867-3.642c2.623,0.003,4.923-0.278,4.891,3.668
		c-0.143,17.158-0.127,34.319-0.018,51.479c0.029,4.532-3.066,3.272-5.523,3.52c-2.857,0.287-4.322-0.509-4.216-3.79
		c0.204-6.324-0.089-12.665,0.127-18.988c0.101-2.943-0.505-4.149-3.768-4.019c-6.487,0.262-12.997,0.229-19.487,0.007
		c-3.008-0.104-4.092,0.634-3.96,3.833c0.262,6.319-0.119,12.667,0.153,18.986c0.158,3.674-1.624,4.104-4.555,3.999
		c-2.732-0.1-5.341,0.44-5.223-3.857C268.445,270.5,268.281,261.998,268.281,253.502z"/>
	<path fill-rule="evenodd" clip-rule="evenodd" fill="#FDFDFD" d="M156.131,253.057c-0.001-20.269,14.316-32.822,33.209-29.134
		c8.005,1.563,13.392,6.304,16.523,13.69c0.701,1.653,2.338,4.297-1.081,4.493c-2.513,0.145-5.528,4.403-7.872-0.78
		c-3.674-8.124-9.673-10.724-18.34-8.587c-5.245,1.293-8.85,4.447-10.72,9.486c-2.706,7.291-2.732,14.668-0.163,21.982
		c2.397,6.827,7.984,10.641,15.238,10.683c6.792,0.039,11.756-3.445,14.483-10.166c1.458-3.595,7.091-4.557,9.792-1.735
		c1.102,1.151,0.316,2.102,0.001,3.177c-2.953,10.103-10.569,16.33-21.346,17.425c-11.257,1.143-20.835-3.549-25.619-12.728
		C157.343,265.31,155.992,259.34,156.131,253.057z"/>
	<path fill-rule="evenodd" clip-rule="evenodd" fill="#FDFDFD" d="M165.87,315.589c0-7.333,0.207-14.674-0.087-21.995
		c-0.147-3.678,1.502-3.999,4.463-4.002c2.855-0.003,4.323,0.484,4.104,3.816c-0.283,4.314,0.092,8.67-0.13,12.991
		c-0.141,2.761,0.536,3.844,3.527,3.724c5.823-0.234,11.667-0.196,17.494-0.01c2.514,0.08,3.095-0.805,3.013-3.138
		c-0.164-4.66,0.127-9.339-0.108-13.994c-0.195-3.846,2.283-3.263,4.605-3.324c2.347-0.062,4.151-0.062,4.117,3.302
		c-0.151,14.997-0.146,29.998-0.006,44.995c0.037,3.919-2.483,3.058-4.71,3.217c-2.525,0.18-4.119-0.262-4.005-3.43
		c0.204-5.659-0.047-11.333,0.114-16.995c0.068-2.404-0.664-3.13-3.082-3.058c-5.828,0.175-11.672,0.241-17.494-0.015
		c-3.143-0.139-3.525,1.242-3.452,3.831c0.15,5.328-0.136,10.673,0.113,15.994c0.16,3.416-1.507,3.761-4.251,3.716
		c-2.615-0.044-4.425-0.086-4.302-3.631C166.048,330.26,165.87,322.921,165.87,315.589z"/>
	<path fill-rule="evenodd" clip-rule="evenodd" fill="#FDFDFD" d="M286.333,315.626c0.001-7.146,0.154-14.295-0.065-21.434
		c-0.104-3.366,0.699-4.778,4.391-4.599c6.466,0.314,12.962-0.026,19.436,0.188c9.898,0.328,15.615,5.446,16.109,14.095
		c0.524,9.146-4.869,15.426-14.717,16.64c-3.934,0.485-7.995,0.595-11.935,0.216c-4.168-0.4-5.006,1.271-4.727,4.967
		c0.3,3.965-0.129,7.983,0.133,11.955c0.238,3.614-1.857,3.498-4.389,3.547c-2.669,0.052-4.412-0.173-4.306-3.643
		C286.488,330.254,286.332,322.938,286.333,315.626z"/>
	<path fill-rule="evenodd" clip-rule="evenodd" fill="#FE190A" d="M465.995,312.814c-4.332,3.783-7.114,9.062-11.938,12.372
		c-1.134-0.932-1.476-2.256-1.41-3.582c0.403-8.299-0.002-16.629-0.575-24.852c-1.008-14.425,0.198-28.871-1.159-43.269
		c-0.476-5.053-0.987-10.259,2.204-14.835c4.36,4.04,8.409,8.365,12.011,13.1c1.002,7.182,1.002,14.429,0.957,21.638
		c-0.078,12.552,0.489,25.083,0.663,37.625C466.757,311.688,466.388,312.272,465.995,312.814z"/>
	<path fill-rule="evenodd" clip-rule="evenodd" fill="#FD3609" d="M413.008,282.023c-8.867,1.387-17.793,0.259-26.685,0.631
		c-2.567,0.107-2.336-1.729-2.331-3.405c0.061-21.731,0.117-43.463,0.176-65.194c3.244,1.427,2.327,4.421,2.346,6.848
		c0.12,16.071,0.055,32.145,0.061,48.217c0,1.491-0.016,2.982,0.006,4.474c0.094,6.336,0.266,6.507,6.779,6.855
		c0.492,0.037,0.987,0.104,1.486,0.104c7.365,0,7.607-0.268,7.698-7.446c0.226-17.924-0.967-35.825-0.79-53.748
		c0.023-2.284-0.613-4.688,1.273-6.614c3.563-0.44,7.132-0.227,10.699-0.121c3.156,7.22,3.182,14.679,1.689,22.257
		c-0.467,0.402-0.982,0.722-1.548,0.965c-0.86,13.429-0.128,26.869-0.405,40.299C413.423,278.103,413.945,280.126,413.008,282.023z"
		/>
	<path fill-rule="evenodd" clip-rule="evenodd" fill="#FE200B" d="M453.117,238.649c-0.991,17.993-0.192,35.95,0.713,53.927
		c0.546,10.846,0.183,21.738,0.228,32.61c-1.604,2.302-3.606,4.215-5.792,5.95c-2.524,0.271-2.36-1.832-2.927-3.302
		c-0.064-0.574-0.034-1.144,0.067-1.71c-1.645-17.363-0.303-34.776-0.935-52.146c-0.286-7.879-0.018-15.781-0.782-23.644
		c-0.45-4.629,0.48-9.24,0.164-13.855c-0.93-2.423-2.293-4.939,1.183-6.571C448.091,232.489,450.82,235.369,453.117,238.649z"/>
	<path fill-rule="evenodd" clip-rule="evenodd" fill="#FB4D08" d="M379,296.957c-4.32-0.409-5.766,1.449-5.365,5.79
		c0.427,4.616-0.041,9.309,0.152,13.957c0.121,2.898-0.592,4.172-3.82,4.158c-3.363-0.014-3.209-1.877-3.205-4.183
		c0.032-21.95,0.018-43.9,0.018-65.851c-0.001-10.809,0.114-21.62-0.058-32.426c-0.075-4.678,1.606-6.574,6.272-5.271
		c0.938,1.716,0.464,3.576,0.467,5.361c0.037,22.526,0.018,45.054,0.037,67.58c0.002,1.645-0.26,3.313,0.256,4.93
		c1.954,1.115,4.164,0.079,6.178,0.721C381.627,293.825,381.199,295.549,379,296.957z"/>
	<path fill-rule="evenodd" clip-rule="evenodd" fill="#FE6B04" d="M330.855,250.587c1.887-2.761,4.449-4.843,6.975-6.963
		c2.992,1.309,3.322,4.184,3.283,6.729c-0.172,11.422,1.287,22.781,0.675,34.251c-0.376,7.03,0.082,14.194,0.382,21.289
		c0.146,3.491,0.191,6.967-0.088,10.438c-0.162,2.008-0.516,4.089-3.381,3.807c-2.898-2.371-5.451-5.075-7.745-8.029
		c-0.894-2.751-0.433-5.585-0.409-8.37C330.693,286.021,330.084,268.3,330.855,250.587z"/>
	<path fill-rule="evenodd" clip-rule="evenodd" fill="#FD4108" d="M394.062,281.852C385,282.26,385,282.26,385,273.151
		c0-17.947,0.018-35.896-0.028-53.843c-0.005-1.762,0.609-3.683-0.804-5.254c0.445-2.612,2.178-1.299,3.526-1.155
		c2.178-0.579,4.353-0.646,6.524,0.037c1.699,2.157,1.373,4.731,1.318,7.176c-0.299,13.091,0.61,26.175,0.07,39.269
		c-0.211,5.129-0.121,10.267,0.656,15.387C396.655,277.349,396.938,280.163,394.062,281.852z"/>
	<path fill-rule="evenodd" clip-rule="evenodd" fill="#FCFCFC" d="M249.014,315.172c0-7.318,0.167-14.643-0.071-21.953
		c-0.115-3.533,1.688-3.617,4.323-3.604c2.618,0.014,4.405,0.091,4.35,3.611c-0.186,11.807,0.139,23.624-0.188,35.425
		c-0.119,4.3,1.243,5.286,5.257,5.006c5.297-0.37,10.643,0.03,15.96-0.143c3.163-0.104,3.396,1.566,3.407,4.062
		c0.01,2.435-0.51,3.666-3.284,3.628c-8.814-0.12-17.631-0.116-26.445,0.007c-2.719,0.038-3.392-1.077-3.352-3.584
		C249.09,330.144,249.014,322.657,249.014,315.172z"/>
	<path fill-rule="evenodd" clip-rule="evenodd" fill="#FE6006" d="M347.773,233.903c1.361-1.969,3.034-3.627,4.998-4.994
		c3.092-1.098,3.305,1.354,3.668,3.197c0.551,2.795,0.031,5.65-0.01,8.478c-0.264,17.823,0.418,35.641,1.253,53.42
		c0.597,12.713,0.317,25.419,0.802,38.12c0.079,2.068,0.741,5.169-2.707,5.984c-2.005-1.322-3.467-3.168-4.877-5.063
		c-1.984-13.908-1.306-27.905-1.417-41.878C349.332,272.067,349.227,252.965,347.773,233.903z"/>
	<path fill-rule="evenodd" clip-rule="evenodd" fill="#FA260A" d="M413.998,235.014c0.335-0.022,0.669-0.046,1.003-0.068
		c2.317-1.835,5.041-1.377,7.681-1.371c0.324-0.005,0.652-0.008,0.981-0.01c9.798-0.062,9.799-0.062,9.183-9.923
		c-0.104-1.658-0.184-3.308,1.15-4.605c3.055,1.605,5.019,4.35,7.191,6.877c-0.199,3.449,0.215,6.893,0.123,10.346
		c0.012,0.79-0.011,1.576-0.066,2.365c-1.289,12.576,0.152,25.169-0.189,37.77c-0.292,10.78,0.751,21.624,0.658,32.493
		c-0.062,7.224,0.359,14.574,0.896,21.845c0.162,2.197,0.096,4.281-0.313,6.401c-1.688,1.912-3.375,3.825-5.936,6.728
		c0-13.521,0.001-25.568,0-37.616c-0.001-8.704-0.003-8.704-8.358-9.286c-0.621-1.921-1.848-3.921,0.714-5.423
		c2.701-0.626,5.731,1.271,8.207-1.074c-1.225-16.552-0.384-33.128-0.458-49.69c-0.016-3.614-0.72-5.088-4.538-4.904
		c-5.953,0.286-11.926,0.167-17.89,0.22c-0.288-0.229-0.39-0.463-0.305-0.705C413.817,235.137,413.906,235.014,413.998,235.014z"/>
	<path fill-rule="evenodd" clip-rule="evenodd" fill="#FE6305" d="M347.773,233.903c2.763,2.874,1.93,6.655,2.124,9.979
		c1.452,24.793,1.021,49.623,1.149,74.443c0.018,3.449,0.514,6.92,1.077,10.333c0.296,1.789,0.442,3.267-1.224,4.386
		c-2.028-1.291-3.396-3.201-4.777-5.099c-2.668-8.75-1.234-17.796-1.372-26.638c-0.278-17.756-1.192-35.496-1.206-53.254
		c-0.002-2.933-1.127-5.495-1.869-8.198C343.365,237.521,345.457,235.597,347.773,233.903z"/>
	<path fill-rule="evenodd" clip-rule="evenodd" fill="#FB3609" d="M383.187,306.003c9.83-1.61,19.726-0.337,29.587-0.648
		c1.852-0.059,1.877,1.456,1.875,2.857c-0.012,13.272-0.065,26.545,0.045,39.816c0.021,2.54-1.005,3.157-3.238,2.997
		c-2.146-0.154-4.305-0.133-6.457-0.188c-2.579-5.189-1.02-10.771-1.275-16.136c-0.309-6.461-0.25-12.974-0.212-19.467
		c0.044-7.304-0.31-7.579-7.486-7.808c-2.907,0.061-5.813,0.112-8.721-0.045C385.795,307.328,384.315,307.185,383.187,306.003z"/>
	<path fill-rule="evenodd" clip-rule="evenodd" fill="#FE6805" d="M341.676,239.856c2.391,1.068,3.389,2.857,3.354,5.524
		c-0.221,17.685,1.093,35.336,1.16,53.027c0.032,8.41-0.612,16.912,0.755,25.322c0.225,1.382,0.504,3.021-0.822,4.216
		c-2.842-2.253-5.27-4.9-7.422-7.809c2.07-0.843,2.264-2.409,2.15-4.465c-0.531-9.63-0.864-19.356-0.504-28.904
		c0.419-11.085-1.124-22.067-0.379-33.102c0.236-3.499-0.287-6.938-2.139-10.043C338.838,242.089,340.104,240.817,341.676,239.856z"
		/>
	<path fill-rule="evenodd" clip-rule="evenodd" fill="#FE3D09" d="M395.994,306.139c9.005-0.368,8.808-0.363,9.062,8.812
		c0.251,9.027-0.601,18.062,0.585,27.104c0.362,2.768-0.842,5.807-0.643,8.783c-2.666-0.001-5.332-0.002-7.998-0.003
		c-2.072-2.032-2.487-4.715-2.418-7.352c0.28-10.586-1.1-21.16-0.133-31.745C394.63,309.77,394.447,307.722,395.994,306.139z"/>
	<path fill-rule="evenodd" clip-rule="evenodd" fill="#FE4008" d="M395.994,306.139c-0.229,14.911-0.719,29.828,1.006,44.695
		c-7.642-0.032-15.283-0.063-22.925-0.095c0.537-2.298,2.507-1.787,4.064-2.086c8.163-0.173,8.652-0.966,8.129-9.011
		c-0.376-5.769-0.858-11.581,0.038-17.384c0.536-3.462,0.422-6.961-0.098-10.438c-0.295-1.967-0.794-3.971,0.787-5.682
		C389.995,306.14,392.994,306.14,395.994,306.139z"/>
	<path fill-rule="evenodd" clip-rule="evenodd" fill="#FB5C06" d="M355.777,338.108c1.883-8.982,4.058-17.959,0.537-27.054
		c-0.174-0.45-0.347-1.036-0.207-1.454c3.496-10.503-1.592-20.746-0.945-31.108c0.915-14.669-1.15-29.317,0.051-43.977
		c0.174-2.115,0.876-4.841-2.441-5.606c1.773-1.917,3.548-3.834,5.398-5.834c1.51,1.547,0.822,3.104,0.824,4.464
		c0.055,32.324,0.037,64.649,0.091,96.974c0.003,1.909-0.761,4.037,0.96,5.692c0.656,0.256,1.292,0.553,1.846,1.001
		c2.605,3.901,1.519,8.199,1.256,12.389c-0.043,0.688-0.799,0.939-1.523,0.571C359.675,342.146,357.727,340.128,355.777,338.108z"/>
	<path fill-rule="evenodd" clip-rule="evenodd" fill="#FE4409" d="M361.016,331.033c-0.324-0.276-0.648-0.552-0.971-0.828
		c6.269-0.055,12.541-0.261,18.805-0.099c3.014,0.078,3.963-0.824,3.967-3.893c0.008-6.734-0.623-13.493,0.369-20.211
		c1.271,0.045,2.541,0.09,3.811,0.136c1.889,10.284,0.212,20.574,0.076,30.861c-0.007,0.489,0.127,0.982,0.213,1.471
		c1.871,10.574,1.072,11.564-9.285,11.514c-2.302-3.798-1.759-7.941-1.491-12.063c0.181-2.772,0.282-5.555-3.736-5.513
		c-1.663,0.087-3.32,0.019-4.98,0.002C365.404,332.58,363.086,332.412,361.016,331.033z"/>
	<path fill-rule="evenodd" clip-rule="evenodd" fill="#FD230A" d="M442.296,337.133c-1.35-2.843-1.25-5.993-1.191-8.926
		c0.219-10.808-0.478-21.637-0.71-32.396c-0.13-6.004,1.892-12.515-0.988-18.69c-0.952-2.041,0.579-5.127,0.549-7.73
		c-0.108-9.339-0.426-18.676-0.59-28.016c-0.02-1.121,0.412-2.25,0.635-3.375c2.964-2.504,4.023-0.104,3.978,2.05
		c-0.128,5.94-0.118,11.911,0.377,17.781c0.839,9.923-1.491,19.735-0.481,29.594c0.607,5.927,1.315,11.813,0.556,17.777
		c-0.465,3.64-0.314,7.174,0.669,10.832c0.939,3.501-0.666,7.392,0.902,10.966c0,0.333,0,0.667,0,1
		c-1.048,1.808,1.252,3.535,0.128,5.345C444.851,334.607,443.573,335.87,442.296,337.133z"/>
	<path fill-rule="evenodd" clip-rule="evenodd" fill="#FE2C09" d="M433.996,219.036c-0.582,3.517,0.898,6.816,1.084,10.275
		c0.23,4.277-1.223,6.203-5.643,5.721c-2.124-0.231-4.292-0.065-6.439-0.079c-2.83-4.735-1.238-10.091-1.885-15.12
		c-0.492-3.833-1.434-5.797-5.376-5.813c-0.655-0.003-1.198-0.537-1.737-0.927c-3.672,0.021-7.343,0.041-11.014,0.062
		c-2.992,1.837-5.987,1.824-8.984,0.013c-2.102-0.089-4.203-0.179-6.307-0.268c12.939-1.065,25.91-0.658,38.865-0.6
		C430.547,212.318,431.336,216.957,433.996,219.036z"/>
	<path fill-rule="evenodd" clip-rule="evenodd" fill="#EA2A09" d="M427.648,328.519c0,6.474-0.035,12.947,0.021,19.421
		c0.016,1.882-0.182,3.154-2.606,3.15c-2.3-0.004-2.733-1.028-2.725-3.034c0.058-13.112,0.051-26.226,0.01-39.339
		c-0.007-2.055,0.165-3.597,2.851-3.51c2.479,0.081,2.461,1.64,2.456,3.394C427.637,315.24,427.648,321.879,427.648,328.519z"/>
	<path fill-rule="evenodd" clip-rule="evenodd" fill="#EE2A09" d="M427.884,263.068c0,5.489-0.042,10.979,0.022,16.468
		c0.022,1.944-0.377,3.167-2.691,3.194c-2.219,0.025-2.868-0.952-2.858-3.02c0.053-11.145,0.06-22.29-0.005-33.434
		c-0.013-2.18,0.772-2.866,2.951-2.846c2.422,0.022,2.631,1.265,2.606,3.17C427.838,252.09,427.884,257.579,427.884,263.068z"/>
	<path fill-rule="evenodd" clip-rule="evenodd" fill="#FB160A" d="M465.995,312.814c-0.588-10.782-1.178-21.547-1.313-32.366
		c-0.1-7.898,1.699-16.061-1.273-23.892c-0.675-1.778,0.381-3.472,1.72-4.807c2.045,1.228,2.719,2.987,2.722,5.397
		c0.021,17.08,0.17,34.159,0.287,51.239C468.149,310.228,468.344,312.129,465.995,312.814z"/>
	<path fill-rule="evenodd" clip-rule="evenodd" fill="#FE3D09" d="M379,296.957c0.971-1.506,1.093-3.186,1.012-4.908
		c7.928-1.124,15.884-0.408,23.832-0.363c1.713,1.708,1.494,3.472,0.152,5.267C395.664,296.954,387.332,296.955,379,296.957z"/>
	<path fill-rule="evenodd" clip-rule="evenodd" fill="#FC4B08" d="M372.992,331.032c3.76-0.587,5.396,0.696,5.09,4.798
		c-0.353,4.693-0.082,9.435-0.082,14.154c-1.327,0.15-2.787-0.384-3.925,0.755c-2.305-0.072-4.749,1.07-6.848-0.787
		c0.452-0.588,1.075-0.928,1.729-1.221c2.853-1.437,3.424-3.724,2.718-6.677C370.766,338.251,371.174,334.541,372.992,331.032z"/>
	<path fill-rule="evenodd" clip-rule="evenodd" fill="#FD5207" d="M368.991,349.974c-0.588-0.007-1.176-0.015-1.764-0.021
		c-2.179-1.627-4.01-3.593-5.604-5.787c0.961-4.432,1.336-8.836-0.607-13.133c2.328,0.001,4.657,0.002,6.986,0.002
		c2.11,2.597,1.394,5.695,1.355,8.597C369.313,343.076,369.518,346.542,368.991,349.974z"/>
	<path fill-rule="evenodd" clip-rule="evenodd" fill="#F74108" d="M374.022,291.97c-1.698-1.44-1.004-3.402-1.007-5.139
		c-0.041-24.566-0.023-49.133-0.021-73.699c1.616,1.515,0.699,3.45,0.71,5.148c0.156,24.265,0.217,48.529,0.3,72.794
		c0.346,0.192,0.463,0.389,0.354,0.59C374.248,291.867,374.137,291.97,374.022,291.97z"/>
	<path fill-rule="evenodd" clip-rule="evenodd" fill="#FE320A" d="M427.98,292.053c0.2,1.635,1.431,3.264,0.021,4.905
		c-4.665-0.002-9.33-0.004-13.994-0.007c-0.678-2.143-0.695-4.095,1.557-5.393C419.701,291.752,423.879,290.927,427.98,292.053z"/>
	<path fill-rule="evenodd" clip-rule="evenodd" fill="#F62A09" d="M427.98,292.053c-4.328,0.003-8.654,0.006-12.981,0.009
		c-3.667,2.108-7.335,2.105-11.001-0.001c-7.996-0.004-15.99-0.009-23.986-0.012c-1.996-0.026-3.993-0.053-5.99-0.079
		c-0.012-0.299-0.018-0.597-0.018-0.896c19.021-0.001,38.041,0.007,57.061-0.02c1.962-0.002,3.983,0.375,5.857-0.593
		C434.412,293.633,430.906,291.217,427.98,292.053z"/>
	<path fill-rule="evenodd" clip-rule="evenodd" fill="#F16904" d="M330.855,250.587c0.033,20.507,0.067,41.015,0.101,61.521
		c-1.14-0.842-0.808-2.083-0.81-3.193c-0.017-18.522-0.013-37.045-0.006-55.567C330.141,252.374,329.979,251.341,330.855,250.587z"
		/>
	<path fill-rule="evenodd" clip-rule="evenodd" fill="#FE3709" d="M403.998,292.061c3.666,0,7.334,0,11.001,0
		c0.104,1.719-0.037,3.388-0.991,4.891c-3.338,0.001-6.674,0.001-10.012,0.001C403.996,295.321,403.997,293.691,403.998,292.061z"/>
	<path fill-rule="evenodd" clip-rule="evenodd" fill="#FD5F06" d="M215.999,291.916c2.333,0.009,4.665,0.018,6.997,0.026
		c1.722,2.338,1.812,4.676,0,7.014c-2,0.008-4.001,0.016-6.001,0.023C214.263,296.963,213.598,294.655,215.999,291.916z"/>
	<path fill-rule="evenodd" clip-rule="evenodd" fill="#FE310A" d="M413.998,235.014c0.014,0.357,0.025,0.715,0.039,1.072
		c-0.059,13.772-0.088,27.546-0.218,41.318c-0.015,1.535,0.825,3.329-0.812,4.619c-0.002-13.948-0.029-27.897,0.022-41.846
		C413.037,238.436,412.358,236.482,413.998,235.014z"/>
	<path fill-rule="evenodd" clip-rule="evenodd" fill="#FD3509" d="M241.102,319.218c-2.289,1.309-4.715,0.524-7.093,0.462
		c-1.817-2.254-1.696-4.54-0.12-6.852c2.406-0.428,4.811-0.604,7.204,0.095l0.018-0.014
		C241.517,315.013,241.363,317.115,241.102,319.218z"/>
	<path fill-rule="evenodd" clip-rule="evenodd" fill="#F46604" d="M215.999,291.916c-0.745,2.506-0.234,4.836,0.996,7.063
		c-2.257-0.402-5.493,2.141-6.554-1.83C209.228,292.614,210.539,291.493,215.999,291.916z"/>
	<path fill-rule="evenodd" clip-rule="evenodd" fill="#FD230A" d="M440,236c0.974-3.294-1.971-7.05,1.188-10.087
		c1.563,1.062,2.892,2.351,3.849,3.996c-0.71,1.692-2.391,3.377-0.036,5.091C443.732,237.33,441.92,236.931,440,236z"/>
	<path fill-rule="evenodd" clip-rule="evenodd" fill="#FE4009" d="M229.997,291.94c1.666,0.001,3.331,0.002,4.997,0.003
		c1.717,2.63,1.923,5.046-0.993,7.021c-1.665-0.001-3.331-0.002-4.996-0.003C228.126,296.449,228.42,294.104,229.997,291.94z"/>
	<path fill-rule="evenodd" clip-rule="evenodd" fill="#F74008" d="M234.021,313.066c-0.004,2.204-0.009,4.409-0.013,6.613
		c-3.336,0.012-6.672,0.022-10.009,0.034c0.007-0.497,0.204-0.901,0.584-1.218c3.785-0.154,3.864-3.926,5.772-5.919
		C231.596,312.625,232.905,312.129,234.021,313.066z"/>
	<path fill-rule="evenodd" clip-rule="evenodd" fill="#E81708" d="M211.09,334.858c11.032-1.023,22.068-0.798,33.105-0.091
		c-0.164,0.223-0.328,0.445-0.491,0.67c-1.756,1.067-3.715,0.874-5.638,0.914c-1.357,0.056-2.714,0.01-4.072,0.006
		c-1.358,0.071-2.715,0.026-4.073,0.014c-1.644,0.059-3.286,0.04-4.929,0.012c-1.664,0.095-3.327-0.049-4.991,0.031
		c-2.801-0.154-5.685,0.443-8.356-0.903C211.459,335.295,211.275,335.076,211.09,334.858z"/>
	<path fill-rule="evenodd" clip-rule="evenodd" fill="#FE4C08" d="M229.997,291.94c-0.08,2.376,0.418,4.833-0.992,7.021
		c-1.333,0-2.666,0-3.999,0c-0.854-2.509-0.603-4.86,0.992-7.022C227.332,291.939,228.664,291.94,229.997,291.94z"/>
	<path fill-rule="evenodd" clip-rule="evenodd" fill="#F83609" d="M234,335.179c1.341,0.005,2.682,0.011,4.023,0.017
		c1.425,1.597,1.343,3.387,0.682,5.254c-0.515,1.176-1.82,0.854-2.667,1.407c-2.012-0.012-4.023-0.023-6.035-0.035
		c-0.079-0.219-0.158-0.438-0.238-0.655c0.134-0.186,0.27-0.374,0.401-0.563C233.133,339.991,233.228,337.345,234,335.179z"/>
	<path fill-rule="evenodd" clip-rule="evenodd" fill="#FD3409" d="M234.001,298.964c1.412-2.188,0.917-4.645,0.993-7.021
		c1-0.002,2-0.003,3.001-0.004c1.726,2.342,1.81,4.684-0.001,7.025C236.663,298.964,235.332,298.964,234.001,298.964z"/>
	<path fill-rule="evenodd" clip-rule="evenodd" fill="#FD290A" d="M237.994,298.965c0-2.342,0-4.684,0.001-7.025
		c1.001-0.006,2.002-0.011,3.004-0.016c1.72,2.35,1.81,4.699-0.003,7.047C239.995,298.969,238.994,298.967,237.994,298.965z"/>
	<path fill-rule="evenodd" clip-rule="evenodd" fill="#F91E0A" d="M240.996,298.971c0.001-2.349,0.002-4.697,0.003-7.047
		c3.364-0.713,3.276,1.49,3.309,3.777C244.341,298.049,243.837,299.635,240.996,298.971z"/>
	<path fill-rule="evenodd" clip-rule="evenodd" fill="#FD5407" d="M225.999,291.938c-0.083,2.376,0.415,4.834-0.992,7.022
		c-0.67-0.002-1.34-0.003-2.011-0.005c0-2.338,0-4.676,0-7.014C223.997,291.941,224.998,291.94,225.999,291.938z"/>
	<path fill-rule="evenodd" clip-rule="evenodd" fill="#F22709" d="M234.021,313.066c-1.348-0.001-2.695-0.003-4.043-0.004
		c-1.502,1.291-3.281,1.228-5.087,1.044c-0.511-0.077-0.99-0.248-1.442-0.497c-0.507-0.309-0.639-0.736-0.398-1.278
		c6.021-0.028,12.075-1.017,18.042,0.592C238.736,312.971,236.379,313.019,234.021,313.066z"/>
	<path fill-rule="evenodd" clip-rule="evenodd" fill="#FE220A" d="M446.128,333.345c0.729-1.8-5.941-3.424-0.128-5.345
		c0.755,1.046,1.51,2.091,2.266,3.137C447.553,331.873,446.84,332.608,446.128,333.345z"/>
	<path fill-rule="evenodd" clip-rule="evenodd" fill="#EA6204" d="M224.03,318.994c-0.011,0.24-0.021,0.479-0.03,0.72
		c-4.396-0.038-8.841,1.095-13.167-0.563c0.192-0.22,0.384-0.439,0.574-0.662c3.984-1.371,7.982-1.271,11.991-0.104
		C223.61,318.586,223.82,318.79,224.03,318.994z"/>
	<path fill-rule="evenodd" clip-rule="evenodd" fill="#EE6404" d="M223.987,341.829c-4.405,0.014-8.864,1.119-13.18-0.654
		c0.177-0.217,0.354-0.435,0.529-0.654c2.908-1.456,6.021-0.748,9.059-0.871c1.11,0.075,2.212,0.201,3.199,0.783
		C224.128,340.783,224.258,341.25,223.987,341.829z"/>
	<path fill-rule="evenodd" clip-rule="evenodd" fill="#EA6204" d="M223.051,312.331c-0.021,0.223-0.031,0.445-0.03,0.669
		c-3.727,2.327-7.598,1.742-11.5,0.574c-0.213-0.223-0.424-0.448-0.635-0.675C214.876,311.32,218.986,312.319,223.051,312.331z"/>
	<path fill-rule="evenodd" clip-rule="evenodd" fill="#E81708" d="M236.039,341.856c0.659-0.286,1.318-0.572,1.978-0.858
		c1.836-1.562,3.913-1.384,6.043-0.842c0.514,0.205,0.901,0.555,1.162,1.043C242.268,342.921,239.12,341.924,236.039,341.856z"/>
	<path fill-rule="evenodd" clip-rule="evenodd" fill="#F22709" d="M241.102,319.218c-0.779-2.104-0.728-4.206,0.009-6.309
		C242.605,315.015,242.552,317.117,241.102,319.218z"/>
	<path fill-rule="evenodd" clip-rule="evenodd" fill="#E81708" d="M244.195,334.768c3.061,1.71,1.637,4.136,1.026,6.432
		c-0.126-0.116-0.251-0.233-0.375-0.352c-1.25-1.744-1.537-3.648-0.952-5.698L244.195,334.768z"/>
	<path fill-rule="evenodd" clip-rule="evenodd" fill="#EE6404" d="M210.808,341.175c-0.598-2.136-1.018-4.263,0.282-6.315
		c0.001-0.001,0.114,0.349,0.114,0.349c1.368,1.897,1.315,3.78-0.06,5.649L210.808,341.175z"/>
	<path fill-rule="evenodd" clip-rule="evenodd" fill="#EA6204" d="M210.833,319.151c-0.727-2.091-0.892-4.176,0.053-6.251
		c0-0.001,0.297,0.28,0.297,0.28c1.377,1.891,1.361,3.776-0.02,5.658L210.833,319.151z"/>
	<path fill-rule="evenodd" clip-rule="evenodd" fill="#F94208" d="M223.987,341.829c0.006-0.277,0.009-0.556,0.007-0.833
		c0.566-0.673,1.322-0.976,2.164-1.116c1.419-0.105,2.793-0.048,3.834,1.131c0.003,0.271,0.007,0.541,0.011,0.811
		C227.998,341.824,225.993,341.827,223.987,341.829z"/>
	<path fill-rule="evenodd" clip-rule="evenodd" fill="none" d="M303.793,297.368c2.325,0,4.667-0.176,6.973,0.038
		c4.307,0.399,6.585,3.093,6.798,7.242c0.212,4.119-1.71,7.124-5.933,8.005c-4.922,1.027-9.942,0.274-14.915,0.478
		c-1.611,0.066-1.908-0.857-1.853-2.216c0.068-1.659,0.025-3.322,0.025-4.984C294.891,297.219,294.891,297.219,303.793,297.368z"/>
	<path fill-rule="evenodd" clip-rule="evenodd" fill="#FE3D09" d="M394.002,213.167c2.994-0.005,5.99-0.01,8.984-0.014
		c0.367,11.276,0.26,22.556,0.889,33.838c0.568,10.198,0.06,20.453,0.158,30.683c0.03,3.251-1.367,4.543-4.504,4.332
		c-1.818-0.123-3.646-0.106-5.469-0.153c1.385-2.302,1.227-4.887,0.803-7.282c-1.367-7.741-0.275-15.465-0.404-23.178
		c-0.136-8.079-0.27-16.188-0.441-24.281C393.92,222.465,394.002,217.815,394.002,213.167z"/>
	<path fill-rule="evenodd" clip-rule="evenodd" fill="#FE310A" d="M414,213.093c1.321-0.03,2.65,0.018,3.963-0.105
		c3.635-0.342,4.605,0.26,4.447,4.755c-0.198,5.635,0.543,11.455,0.588,17.211c-2.666-0.002-5.332-0.005-7.997-0.007
		C414.668,227.661,414.334,220.377,414,213.093z"/>
	<path fill-rule="evenodd" clip-rule="evenodd" fill="#FE220A" d="M440,236c1.755,0.108,3.457-0.05,5-1
		c0.018,8.246,0.263,16.501-0.043,24.734c-0.15,4.04,1.149,7.812,1.108,11.816c-0.161,15.425,0.123,30.856-0.225,46.275
		c-0.07,3.081,3.261,6.117,0.159,9.174c-1.623-2.323-4.488-4.357-1.389-7.651c0.478-0.507,0.438-2.168-0.032-2.794
		c-3.566-4.761-1.277-9.8-1.041-14.783c0.239-5.031-0.271-10.063-1.146-15.035c-0.724-4.103-1.215-8.221,0.87-12.055
		c1.659-3.049-0.284-5.837-0.256-8.75c0.073-7.755,0.257-15.512,0.148-23.265c-0.026-1.938,1.521-5.604-3.154-4.667
		C440,237.333,440,236.667,440,236z"/>
	<path fill-rule="evenodd" clip-rule="evenodd" fill="#FE4F08" d="M368.991,349.974c-2.601-4.16-0.349-8.684-0.946-13.006
		c-0.268-1.943-0.044-3.954-0.043-5.934c1.664-0.001,3.327-0.001,4.991-0.002c0.765,4.241-1.593,8.45,0.512,12.95
		C374.288,345.658,372.967,349.793,368.991,349.974z"/>
	<path fill-rule="evenodd" clip-rule="evenodd" fill="#FE5008" d="M224.007,313.066c1.991-0.002,3.981-0.004,5.972-0.005
		c0.912,4.882-1.199,6.731-5.949,5.933c0,0-0.068-0.046-0.068-0.046C222.44,316.976,222.453,315.015,224.007,313.066z"/>
	<path fill-rule="evenodd" clip-rule="evenodd" fill="#FD6205" d="M211.144,340.857c0.019-1.884,0.038-3.767,0.058-5.649
		c2.958-0.015,5.914-0.029,8.87-0.044c2.222,1.634,3.506,3.416,0.926,5.814C217.714,340.938,214.429,340.898,211.144,340.857z"/>
	<path fill-rule="evenodd" clip-rule="evenodd" fill="#FD290A" d="M243.894,335.149c1.375,1.723,1.095,3.724,0.953,5.699
		c-2.278,0.049-4.555,0.099-6.832,0.149c0.002-1.936,0.005-3.871,0.007-5.805C239.98,335.18,241.937,335.165,243.894,335.149z"/>
	<path fill-rule="evenodd" clip-rule="evenodd" fill="#FA4E07" d="M229.992,341.011c-1.333-0.01-2.667-0.019-4.001-0.028
		c-1.76-1.688-2.757-3.509-1.005-5.806c1.671-0.002,3.342-0.004,5.013-0.006c1.631,1.938,1.472,3.878,0.012,5.821L229.992,341.011z"
		/>
	<path fill-rule="evenodd" clip-rule="evenodd" fill="#F94208" d="M230.01,340.992c-0.004-1.94-0.008-3.882-0.012-5.822
		c1.334,0.003,2.668,0.004,4.001,0.007C235.562,339.101,234.904,341.5,230.01,340.992z"/>
	<path fill-rule="evenodd" clip-rule="evenodd" fill="#FD5B07" d="M224.986,335.177c0.335,1.936,0.67,3.871,1.005,5.807
		c-0.666,0.004-1.332,0.008-1.997,0.013c-0.999-0.006-1.997-0.011-2.996-0.017c1.061-2.158-0.201-3.945-0.927-5.816
		C221.71,335.168,223.348,335.173,224.986,335.177z"/>
	<path fill-rule="evenodd" clip-rule="evenodd" fill="#FE5E06" d="M224.007,313.066c-0.015,1.961-0.03,3.922-0.045,5.882
		c-4.268-0.036-8.535-0.071-12.8-0.108c0.007-1.888,0.013-3.774,0.02-5.66c3.947-0.059,7.893-0.119,11.839-0.18
		C223.351,312.999,223.68,313.021,224.007,313.066z"/>
</g>
</svg>
